<svg width="16" height="16" viewBox="0 0 16 16" fill="none" xmlns="http://www.w3.org/2000/svg">
<path fill-rule="evenodd" clip-rule="evenodd" d="M3.72001 3.72C3.86063 3.57955 4.05126 3.50066 4.25001 3.50066C4.44876 3.50066 4.63938 3.57955 4.78001 3.72L8.00001 6.94L11.22 3.72C11.2887 3.64631 11.3715 3.58721 11.4635 3.54622C11.5555 3.50523 11.6548 3.48319 11.7555 3.48141C11.8562 3.47963 11.9562 3.49816 12.0496 3.53588C12.143 3.5736 12.2278 3.62974 12.299 3.70096C12.3703 3.77218 12.4264 3.85702 12.4641 3.9504C12.5018 4.04379 12.5204 4.14382 12.5186 4.24452C12.5168 4.34523 12.4948 4.44454 12.4538 4.53654C12.4128 4.62854 12.3537 4.71134 12.28 4.78L9.06001 8L12.28 11.22C12.3537 11.2887 12.4128 11.3715 12.4538 11.4635C12.4948 11.5555 12.5168 11.6548 12.5186 11.7555C12.5204 11.8562 12.5018 11.9562 12.4641 12.0496C12.4264 12.143 12.3703 12.2278 12.299 12.299C12.2278 12.3703 12.143 12.4264 12.0496 12.4641C11.9562 12.5018 11.8562 12.5204 11.7555 12.5186C11.6548 12.5168 11.5555 12.4948 11.4635 12.4538C11.3715 12.4128 11.2887 12.3537 11.22 12.28L8.00001 9.06L4.78001 12.28C4.63783 12.4125 4.44978 12.4846 4.25548 12.4812C4.06118 12.4777 3.8758 12.399 3.73838 12.2616C3.60097 12.1242 3.52226 11.9388 3.51883 11.7445C3.5154 11.5502 3.58753 11.3622 3.72001 11.22L6.94001 8L3.72001 4.78C3.57956 4.63938 3.50067 4.44875 3.50067 4.25C3.50067 4.05125 3.57956 3.86063 3.72001 3.72Z" fill="#42B556"/>
</svg>
