<svg width="16" height="16" viewBox="0 0 16 16" fill="none" xmlns="http://www.w3.org/2000/svg">
<g clip-path="url(#clip0_338_921)">
<path fill-rule="evenodd" clip-rule="evenodd" d="M7.65509 14.9159C7.65532 14.9161 7.65552 14.9162 8.00009 14.25C8.34466 14.9162 8.34486 14.9161 8.3451 14.9159C8.12898 15.0277 7.8712 15.0277 7.65509 14.9159ZM7.65509 14.9159L8.00009 14.25L8.3451 14.9159L8.3474 14.9147L8.35278 14.9119L8.37126 14.9022C8.38696 14.8939 8.40935 14.882 8.43799 14.8665C8.49525 14.8356 8.57755 14.7904 8.68129 14.7317C8.88869 14.6142 9.18238 14.442 9.53367 14.2199C10.2347 13.7767 11.1729 13.13 12.1148 12.3181C13.9555 10.7312 16.0001 8.35031 16.0001 5.5C16.0001 2.83579 13.9143 1 11.7501 1C10.2027 1 8.8472 1.80151 8.00009 3.01995C7.15298 1.80151 5.79745 1 4.25009 1C2.08588 1 9.15527e-05 2.83579 9.15527e-05 5.5C9.15527e-05 8.35031 2.04468 10.7312 3.88539 12.3181C4.82726 13.13 5.76547 13.7767 6.46651 14.2199C6.8178 14.442 7.11149 14.6142 7.31889 14.7317C7.42263 14.7904 7.50493 14.8356 7.56219 14.8665C7.59083 14.882 7.61322 14.8939 7.62892 14.9022L7.6474 14.9119L7.65278 14.9147L7.65509 14.9159Z" fill="#42B556"/>
</g>
<defs>
<clipPath id="clip0_338_921">
<rect width="16" height="16" fill="white"/>
</clipPath>
</defs>
</svg>
